HIERARCHY
ROOT Hips
{
	OFFSET 0.00000 0.00000 0.00000
	CHANNELS 6 Xposition Yposition Zposition Zrotation Yrotation Xrotation 
	JOINT LHipJoint
	{
		OFFSET 0 0 0
		CHANNELS 3 Zrotation Yrotation Xrotation
		JOINT LeftHip
		{
			OFFSET 1.62329 -1.80800 0.67318
			CHANNELS 3 Zrotation Yrotation Xrotation
			JOINT LeftKnee
			{
				OFFSET 2.57139 -7.06484 0.00000
				CHANNELS 3 Zrotation Yrotation Xrotation
				JOINT LeftAnkle
				{
					OFFSET 2.52017 -6.92413 0.00000
					CHANNELS 3 Zrotation Yrotation Xrotation
					JOINT LeftToe
					{
						OFFSET 0.23295 -0.64001 2.10214
						CHANNELS 3 Zrotation Yrotation Xrotation
						End Site
						{
							OFFSET 0.00000 -0.00000 1.10139
						}
					}
				}
			}
		}
	}
	JOINT RHipJoint
	{
		OFFSET 0 0 0
		CHANNELS 3 Zrotation Yrotation Xrotation
		JOINT RightHip
		{
			OFFSET -1.48061 -1.80800 0.67318
			CHANNELS 3 Zrotation Yrotation Xrotation
			JOINT RightKnee
			{
				OFFSET -2.63258 -7.23296 0.00000
				CHANNELS 3 Zrotation Yrotation Xrotation
				JOINT RightAnkle
				{
					OFFSET -2.54779 -7.00000 0.00000
					CHANNELS 3 Zrotation Yrotation Xrotation
					JOINT RightToe
					{
						OFFSET -0.23067 -0.63376 2.12161
						CHANNELS 3 Zrotation Yrotation Xrotation
						End Site
						{
							OFFSET -0.00000 -0.00000 1.11000
						}
					}
				}
			}
		}
	}
	JOINT lowerback
	{
		OFFSET 0 0 0
		CHANNELS 3 Zrotation Yrotation Xrotation
		JOINT Chest
		{
			OFFSET -0.02108 2.07573 -0.16981
			CHANNELS 3 Zrotation Yrotation Xrotation
			JOINT Chest2
			{
				OFFSET 0.05070 2.08439 -0.03141
				CHANNELS 3 Zrotation Yrotation Xrotation
				JOINT lowerneck
				{
					OFFSET 0 0 0
					CHANNELS 3 Zrotation Yrotation Xrotation
					JOINT Neck
					{
						OFFSET -0.10731 1.60408 0.31370
						CHANNELS 3 Zrotation Yrotation Xrotation
						JOINT Head
						{
							OFFSET 0.08411 1.65679 -0.30822
							CHANNELS 3 Zrotation Yrotation Xrotation
							End Site
							{
								OFFSET 0.03911 1.69149 -0.14146
							}
						}
					}
				}
				JOINT LeftCollar
				{
					OFFSET 0 0 0
					CHANNELS 3 Zrotation Yrotation Xrotation
					JOINT LeftShoulder
					{
						OFFSET 3.52315 0.73219 -0.54694
CHANNELS 3 Zrotation Xrotation Yrotation
						JOINT LeftElbow
						{
OFFSET 0 -5.324620 -0.000000
CHANNELS 3 Zrotation Xrotation Yrotation
							JOINT LeftWrist
							{
OFFSET 0 -3.484020 -0.000000
CHANNELS 3 Zrotation Xrotation Yrotation
								JOINT lhand
								{
									OFFSET 0 0 0
CHANNELS 3 Zrotation Xrotation Yrotation
									JOINT LFingers
									{
OFFSET 0 -0.572480 -0.000000
CHANNELS 3 Zrotation Xrotation Yrotation
										End Site
										{
OFFSET 0 -0.461540 -0.000000
										}
									}
								}
								JOINT LThumb
								{
OFFSET 0 0.000000 0.000000
CHANNELS 3 Zrotation Xrotation Yrotation
									End Site
									{
OFFSET 0 -0.468590 0.468590
									}
								}
							}
						}
					}
				}
				JOINT RightCollar
				{
					OFFSET 0 0 0
					CHANNELS 3 Zrotation Yrotation Xrotation
					JOINT RightShoulder
					{
						OFFSET -3.41766 0.93592 -0.10019
CHANNELS 3 Zrotation Xrotation Yrotation
						JOINT RightElbow
						{
OFFSET 0 -5.335890 -0.000000
CHANNELS 3 Zrotation Xrotation Yrotation
							JOINT RightWrist
							{
OFFSET 0 -3.641340 -0.000000
CHANNELS 3 Zrotation Xrotation Yrotation
								JOINT rhand
								{
									OFFSET 0 0 0
CHANNELS 3 Zrotation Xrotation Yrotation
									JOINT RFingers
									{
OFFSET 0 -0.734810 -0.000000
CHANNELS 3 Zrotation Xrotation Yrotation
										End Site
										{
OFFSET 0 -0.592420 -0.000000
										}
									}
								}
								JOINT RThumb
								{
OFFSET 0 0.000000 0.000000
CHANNELS 3 Zrotation Xrotation Yrotation
									End Site
									{
OFFSET 0 -0.601470 0.601470
									}
								}
							}
						}
					}
				}
			}
		}
	}
}
MOTION
Frames: 10
Frame Time: 0.008333333333333333
-5.114095 18.070155 -0.265708 11.272204 20.761516 22.922223 0.000000 0.000000 0.000000 -15.925971 -11.206780 -17.209707 1.569085 7.904053 22.422948 -0.068603 6.797988 -7.775030 1.289203 -7.180540 -20.257240 0.000000 0.000000 0.000000 4.202463 5.493094 -39.068318 -3.280754 -11.136325 32.740988 -0.536363 -7.869483 -18.885989 -0.104305 -2.082264 5.732913 1.316782 -1.677995 12.941994 7.122525 -1.796491 6.349352 7.006466 -0.933228 -0.364937 -9.438011 -7.870986 -11.599518 7.474426 -11.046380 29.195295 2.855081 -4.940396 12.568687 0.000000 0.000000 0.000000 -2.918559 -31.124668 -90.884424 53.329082 -54.252091 28.855212 31.727132 -50.493833 -55.152634 0.000000 0.000000 0.000000 -7.125000 0.000000 0.000000 -85.035248 83.775922 78.792475 0.000000 0.000000 0.000000 -25.026001 -44.945174 -4.281570 -18.514959 -28.811529 -4.794831 -37.421605 -11.596800 20.324191 0.000000 0.000000 0.000000 7.125000 0.000000 0.000000 -9.681257 54.722943 2.330668
-4.961070 18.094047 -0.407253 12.250443 22.953374 22.234508 0.000000 0.000000 0.000000 -15.834079 -11.222004 -17.589464 1.552326 7.863683 22.300881 -0.302337 9.727808 -4.416159 0.668410 -5.228129 -14.560317 0.000000 0.000000 0.000000 2.935661 4.432255 -37.267625 -3.205470 -11.020468 32.348969 -0.552151 -9.077381 -20.152663 -0.139137 -2.402648 6.619866 1.925903 -0.806339 13.140947 7.545299 -0.547509 6.414314 6.954113 -0.292835 -0.543812 -9.647289 -9.223608 -10.706870 7.419492 -12.909280 28.766517 2.595289 -5.792766 12.425855 0.000000 0.000000 0.000000 -0.601363 -26.898412 -84.296658 50.527255 -53.205866 26.595823 30.032102 -52.974617 -54.034373 0.000000 0.000000 0.000000 -7.125000 0.000000 0.000000 -72.186533 83.215502 65.603071 0.000000 0.000000 0.000000 -19.112073 -44.782291 4.432028 -18.059472 -28.233193 -4.577350 -31.758426 -15.066194 22.013505 0.000000 0.000000 0.000000 7.125000 0.000000 0.000000 -3.176889 55.382590 0.810335
-4.762534 18.086827 -0.577893 13.011353 24.594447 21.643429 0.000000 0.000000 0.000000 -16.543726 -10.258462 -18.141280 1.535710 7.823497 22.179321 -0.438470 11.835322 -2.082391 0.467309 -4.384437 -12.160885 0.000000 0.000000 0.000000 1.649920 3.392507 -35.845857 -3.153074 -10.938809 32.073710 -0.549909 -9.910548 -20.923453 -0.140178 -2.412406 6.646792 2.432721 0.376192 13.225981 7.924473 1.079043 6.603365 6.850015 0.530321 -0.558896 -9.558865 -10.742456 -10.012323 7.436209 -15.066770 28.243791 2.262148 -6.735248 12.299751 0.000000 0.000000 0.000000 2.240151 -23.160569 -78.988580 51.466955 -53.570282 27.350135 36.898235 -49.445820 -52.150992 0.000000 0.000000 0.000000 -7.125000 0.000000 0.000000 -61.626277 86.157448 58.188614 0.000000 0.000000 0.000000 -13.293656 -44.566372 11.557232 -17.992401 -28.147151 -4.545817 -28.248487 -18.943970 21.323741 0.000000 0.000000 0.000000 7.125000 0.000000 0.000000 0.468062 53.879115 -0.102090
-4.518431 18.036121 -0.773140 13.290683 26.762877 21.393594 0.000000 0.000000 0.000000 -17.666318 -8.915778 -19.618873 1.532724 7.816139 22.156995 -0.405494 11.895869 -0.094364 1.175160 -6.840740 -19.259996 0.000000 0.000000 0.000000 0.556675 2.451805 -35.010450 -3.193334 -11.001524 32.285103 -0.611382 -10.445095 -22.032661 -0.162968 -2.601132 7.170146 3.234667 1.399250 13.133731 8.543851 2.544028 6.568654 6.855142 1.279591 -0.685275 -9.405134 -12.204526 -10.570425 7.352500 -17.121624 28.500770 1.818641 -7.573863 12.713382 0.000000 0.000000 0.000000 5.148776 -19.523296 -75.115222 53.043992 -54.151507 28.623782 35.522707 -51.223665 -51.510315 0.000000 0.000000 0.000000 -7.125000 0.000000 0.000000 -51.883336 85.346502 48.122067 0.000000 0.000000 0.000000 -8.318476 -45.070729 16.439824 -16.423687 -26.091749 -3.830446 -27.624699 -17.666919 21.149984 0.000000 0.000000 0.000000 7.125000 0.000000 0.000000 1.084495 53.564570 -0.229409
-4.216953 17.955938 -0.976030 13.017707 29.056615 20.968065 0.000000 0.000000 0.000000 -19.208162 -6.199292 -20.594868 1.638815 8.069268 22.924617 -0.329665 10.181839 -2.511626 1.995759 -8.857254 -25.349677 0.000000 0.000000 0.000000 -0.126957 1.357820 -34.392172 -3.327264 -11.206898 32.980758 -0.676567 -10.788410 -22.958668 -0.160122 -2.578058 7.106256 3.902735 2.267609 13.094548 9.204891 3.831319 6.193703 6.996818 1.938480 -1.184920 -8.906242 -13.314711 -10.365373 7.530981 -18.830117 28.211916 1.524705 -8.243222 12.695505 0.000000 0.000000 0.000000 7.741707 -14.682659 -71.947566 56.446783 -55.286200 31.401981 40.143346 -47.141411 -52.862631 0.000000 0.000000 0.000000 -7.125000 0.000000 0.000000 -88.499398 87.497051 85.997926 0.000000 0.000000 0.000000 -3.177646 -44.058920 19.643590 -16.072608 -25.619003 -3.677310 -28.022748 -17.076794 21.362666 0.000000 0.000000 0.000000 7.125000 0.000000 0.000000 0.715831 53.876058 -0.156148
-3.860939 17.856276 -1.193739 13.011447 31.679804 20.808324 0.000000 0.000000 0.000000 -20.874369 -5.466768 -20.245396 1.564230 7.892323 22.387547 -0.241559 9.009979 -5.888596 1.884033 -8.618897 -24.611034 0.000000 0.000000 0.000000 -1.302462 0.146207 -33.357394 -3.379036 -11.284781 33.246419 -0.766331 -10.997237 -23.938958 -0.128972 -2.314652 6.376044 3.917631 2.652353 12.298431 9.787661 4.299232 6.313035 7.597117 2.178962 -0.713546 -8.958712 -14.132212 -10.409840 8.439615 -20.143012 27.278742 1.624640 -8.742413 12.585341 0.000000 0.000000 0.000000 9.293119 -10.717643 -68.384216 59.822140 -56.261422 34.193334 41.589435 -46.298044 -52.893730 0.000000 0.000000 0.000000 -7.125000 0.000000 0.000000 -101.656821 -87.928204 -103.685589 0.000000 0.000000 0.000000 0.991828 -43.703041 23.734169 -16.015676 -25.541949 -3.652748 -28.515240 -16.922342 22.174194 0.000000 0.000000 0.000000 7.125000 0.000000 0.000000 0.389408 54.862805 -0.094457
-3.468956 17.755136 -1.419024 13.850329 34.858622 20.860140 0.000000 0.000000 0.000000 -23.077238 -4.892546 -19.065393 1.377734 7.427615 20.988517 -0.061402 6.721439 -7.867001 1.596575 -7.969631 -22.621957 0.000000 0.000000 0.000000 -3.337865 -0.900886 -31.319250 -3.399352 -11.315033 33.349851 -0.954995 -11.564749 -25.990061 -0.189165 -2.799166 7.720174 3.325799 2.747244 12.161228 9.988968 4.399512 6.144419 8.145776 2.231491 -0.888459 -8.513828 -14.828314 -10.802972 8.412876 -21.188036 27.252860 1.331191 -9.132731 12.704504 0.000000 0.000000 0.000000 10.022001 -6.875202 -66.207673 62.299835 -56.892164 36.261272 37.382552 -50.916244 -50.596360 0.000000 0.000000 0.000000 -7.125000 0.000000 0.000000 -40.437648 85.894276 37.701866 0.000000 0.000000 0.000000 2.533343 -41.983984 29.315740 -16.923293 -26.756393 -4.052872 -27.803562 -19.288842 23.416328 0.000000 0.000000 0.000000 7.125000 0.000000 0.000000 1.499320 56.059092 -0.409713
-3.092231 17.706511 -1.683009 13.206031 37.101168 20.388423 0.000000 0.000000 0.000000 -24.137524 -3.722482 -19.284786 1.360772 7.383480 20.856662 0.122446 4.369553 -9.652047 1.114147 -6.703931 -18.841775 0.000000 0.000000 0.000000 -4.460731 1.609689 -28.655602 -3.242758 -11.077897 32.543142 -1.053614 -14.675909 -29.609762 -0.364500 -3.868028 10.706886 3.335743 3.098047 12.215741 10.061799 4.893495 6.085078 8.143068 2.486721 -1.045951 -8.969986 -15.354034 -10.538420 8.905877 -21.977459 27.202924 1.434787 -9.465157 12.847568 0.000000 0.000000 0.000000 9.975344 -5.264312 -66.112064 61.837332 -56.779806 35.874083 37.914592 -50.870981 -50.698241 0.000000 0.000000 0.000000 -7.125000 0.000000 0.000000 -41.291124 86.211924 38.728400 0.000000 0.000000 0.000000 1.797317 -40.947293 34.136740 -17.355339 -27.323790 -4.249190 -25.269842 -21.732277 24.789327 0.000000 0.000000 0.000000 7.125000 0.000000 0.000000 4.717069 56.971465 -1.385904
-2.719477 17.690582 -1.954527 13.255989 39.227636 20.561323 0.000000 0.000000 0.000000 -25.549922 -3.450851 -19.872253 1.440267 7.587252 21.467257 0.244268 1.890447 -10.228207 0.967444 -6.262215 -17.547218 0.000000 0.000000 0.000000 -6.046302 5.374691 -25.872184 -3.095288 -10.847810 31.768291 -0.925445 -18.882943 -33.092032 -1.266536 -7.129601 20.101557 3.062216 3.094617 12.133739 9.466319 4.837613 6.010094 7.650015 2.458054 -1.047889 -9.025160 -15.354834 -9.912488 8.844098 -21.937562 27.090444 1.481366 -9.498037 12.672009 0.000000 0.000000 0.000000 9.768884 -6.652825 -69.076955 59.945223 -56.295134 34.295587 40.594815 -48.340502 -51.785169 0.000000 0.000000 0.000000 -7.125000 0.000000 0.000000 -65.544050 87.878290 63.596917 0.000000 0.000000 0.000000 1.178521 -41.006566 33.860430 -17.397449 -27.378699 -4.268465 -25.060179 -22.795066 24.376633 0.000000 0.000000 0.000000 7.125000 0.000000 0.000000 4.790697 56.490885 -1.351814
-2.402728 17.641772 -2.246719 13.211644 41.000746 21.111086 0.000000 0.000000 0.000000 -26.329497 -3.692948 -22.003331 1.783030 8.398366 23.930904 0.346182 -1.754046 -10.643691 0.781745 -5.644759 -15.757103 0.000000 0.000000 0.000000 -7.191388 8.308075 -25.070761 -3.198019 -11.008879 32.309923 -0.638106 -18.073625 -30.379578 -1.756432 -8.327058 23.718955 2.176992 2.751635 12.197453 8.959569 4.284619 5.941125 7.676819 2.171783 -1.118900 -8.558682 -14.670799 -9.754108 7.951711 -20.799235 27.285994 1.329121 -9.072758 12.410373 0.000000 0.000000 0.000000 7.922276 -11.099183 -74.373391 57.981966 -55.747578 32.667468 43.880672 -43.061671 -52.894151 0.000000 0.000000 0.000000 -7.125000 0.000000 0.000000 -136.980002 -88.144766 -138.255712 0.000000 0.000000 0.000000 -0.691713 -42.170701 29.686079 -18.009132 -28.168705 -4.553589 -25.184770 -22.941753 25.296874 0.000000 0.000000 0.000000 7.125000 0.000000 0.000000 5.006537 57.486786 -1.534059
